<svg data-name="eb464c25-2dc8-4715-a20f-2c5bffd124f2" xmlns="http://www.w3.org/2000/svg" viewBox="0 0 100.003 100">
  <path id="e5e6493a-b93b-4d49-ac47-464647f81809" data-name="a3059dd5-8237-4f58-bbf9-7e87595c16e9" fill="#0097e3" d="M85.206,85.2H70.389V62c0-5.534-.1-12.657-7.707-12.657-7.717,0-8.9,6.029-8.9,12.254V85.2H38.966V37.487H53.191v6.521h.2A15.589,15.589,0,0,1,67.425,36.3c15.018,0,17.787,9.878,17.787,22.729ZM22.248,30.964a8.6,8.6,0,1,1,8.6-8.6,8.6,8.6,0,0,1-8.6,8.6h0m7.408,54.242H14.823V37.487H29.656ZM92.593,0H7.378A7.3,7.3,0,0,0,0,7.214V92.783A7.3,7.3,0,0,0,7.378,100H92.593A7.316,7.316,0,0,0,100,92.783V7.208A7.314,7.314,0,0,0,92.593,0" transform="translate(0.002 0.001)"/>
</svg>
