<svg data-name="svg2" xmlns="http://www.w3.org/2000/svg" viewBox="0 0 36.915 30">
  <g data-name="layer1">
    <path data-name="path5" fill="#0097e3" d="M59.458,3.551a15.127,15.127,0,0,1-4.35,1.193,7.605,7.605,0,0,0,3.33-4.19,15.172,15.172,0,0,1-4.81,1.838A7.58,7.58,0,0,0,40.723,9.3,21.5,21.5,0,0,1,25.112,1.386,7.582,7.582,0,0,0,27.456,11.5a7.542,7.542,0,0,1-3.43-.947c0,.032,0,.063,0,.095A7.579,7.579,0,0,0,30.1,18.072a7.62,7.62,0,0,1-3.42.13,7.582,7.582,0,0,0,7.075,5.259A15.2,15.2,0,0,1,24.349,26.7a15.41,15.41,0,0,1-1.807-.106A21.438,21.438,0,0,0,34.152,30C48.083,30,55.7,18.46,55.7,8.451c0-.328-.008-.655-.022-.98a15.374,15.374,0,0,0,3.778-3.92Z" transform="translate(-22.542)"/>
  </g>
</svg>
